# Alias OBJ Model File
# Exported from SketchUp, (c) 2000-2012 Trimble Navigation Limited
# File units = meters

mtllib Untitled.mtl

g Mesh1 Model

usemtl FrontColor
v 1 0 -1
vt -39.3701 39.3701
vn 0 -1 -0
v 0 0 -0
vt 0 0
v 0 0 -1
vt 0 39.3701
f 1/1/1 2/2/1 3/3/1

v 1 0 -0
vt -39.3701 0
f 2/2/1 1/1/1 4/4/1

usemtl BackColor
vn -0 1 0
f 3/3/2 2/2/2 1/1/2

usemtl FrontColor
vn -1 -3.41216e-16 -3.41216e-16
v 0 1 -1
vt -39.3701 4.58379e-30
f 2/2/3 5/1/3 3/5/3

v -6.82432e-16 1 -0
vt 9.16758e-30 39.3701
f 5/1/3 2/2/3 6/6/3

usemtl BackColor
vn 1 3.41216e-16 3.41216e-16
f 6/6/4 2/2/4 5/1/4

usemtl FrontColor
vn 0 0 1
v 1 1 -0
vt 39.3701 39.3701
vt -2.68674e-14 39.3701
f 2/2/5 7/7/5 6/8/5

vt 39.3701 0
f 7/7/5 2/2/5 4/9/5

usemtl BackColor
vn -0 -0 -1
f 4/9/6 2/2/6 7/7/6

f 4/4/2 1/1/2 2/2/2

usemtl FrontColor
vn 1 0 -0
f 1/9/7 7/3/7 4/2/7

v 1 1 -1
f 7/3/7 1/9/7 8/7/7

usemtl BackColor
vn -1 -0 0
f 4/2/8 7/3/8 1/9/8

f 8/7/8 1/9/8 7/3/8

usemtl FrontColor
vn 0 0 -1
f 1/4/9 5/3/9 8/1/9

f 5/3/9 1/4/9 3/2/9

usemtl BackColor
vn -0 -0 1
f 3/2/10 1/4/10 5/3/10

f 8/1/10 5/3/10 1/4/10

usemtl FrontColor
vn 0 1 -0
f 5/3/11 7/9/11 8/7/11

vt -2.68674e-14 0
f 7/9/11 5/3/11 6/10/11

usemtl BackColor
vn -0 -1 0
f 6/10/12 5/3/12 7/9/12

f 8/7/12 7/9/12 5/3/12

f 6/8/6 7/7/6 2/2/6

f 3/5/4 5/1/4 2/2/4

